<?xml version="1.0" standalone="no"?>
<svg width="1141" height="1622" xmlns="http://www.w3.org/2000/svg" viewbox="0 0 1141 1622" xmlns:cc="http://creativecommons.org/ns#" xmlns:dc="http://purl.org/dc/elements/1.1/" xmlns:ev="http://www.w3.org/2001/xml-events" xmlns:rdf="http://www.w3.org/1999/02/22-rdf-syntax-ns#" xmlns:svg="http://www.w3.org/2000/svg" xmlns:xlink="http://www.w3.org/1999/xlink" style="background-color: rgba(34, 34, 34, 0);"><path d="M471.7,753.1l-39.1,71.5 -13.6,66.5 -25.6,34.1 -39.1,37.5 -22.1,56.3 -11.9,44.3 -6.8,35.8 -18.7,22.2 -17,10.2 39.1,29 13.6,-8.6 3.4,-18.8 6.8,-32.4 30.7,-47.7 22.1,-30.7 18.7,-54.5 32.4,-37.5 32.4,-54.5 37.4,-34.1 22.1,-34.1 10.3,-20.4 25.6,-1.8 11.9,47.7 35.7,57.9 27.3,51.1 13.6,25.6 10.3,44.3 22.1,42.7 22.1,34.1 29,32.4 15.3,29 6.8,27.2 29,-17 17,0 11.9,-10.2 23.8,-18.8 -11.9,-12 -39.1,3.4 -17,-17 -25.6,-61.3 -18.7,-39.3 -17,-25.6 -8.6,-20.4 -1.7,-23.8 -15.3,-25.6 -1.7,-27.2 -11.9,-44.3 -22.1,-46.1 -10.3,-30.7 -6.8,-29 -11.9,-35.8 1.7,-15.4 -1.7,-30.7 8.6,-39.3 11.9,-35.8 11.9,-32.4 27.3,-12 29,1.8 52.8,-5.2 47.7,8.6 51.1,-13.6 47.7,0 68.1,-5.2 -23.8,-8.6 29,-5.2 -30.7,-8.6 40.8,1.8 -37.4,-10.2 27.3,-3.4 -49.4,-10.2 -25.6,12 -32.4,5.2 -39.1,-1.8 -63,5.2 -54.5,-1.8 -44.3,-15.4 -42.6,0 -32.4,-10.2 -22.1,-25.6 6.8,-20.4 3.4,-35.8 -11.9,-23.8 -42.6,-8.6 -15.3,27.2 0,35.8 5.1,29 -10.3,18.8 -20.4,5.2 -40.8,6.8 -37.4,10.2 -29,-1.8 -32.4,10.2 -30.7,-8.6 -27.3,1.8 -32.4,-3.4 -37.4,1.8 -37.4,-6.8 -47.7,-10.2 20.4,13.6 -39.1,-5.2 34.1,15.4 -35.7,0 32.4,6.8 -29,10.2 46,8.6 23.8,8.6 27.3,-5.2 40.8,6.8 59.6,0 49.4,-1.8 39.1,10.2 39.1,0 20.4,17 3.4,34.1 13.6,42.7 0,20.4 -5.1,27.2 -5.1,39.3Z" stroke-width="2" stroke="#777777" stroke-opacity="1" fill-opacity="10" stroke-linejoin="round" fill="transparent"/><path d="M473.4,746.3l3.4,37.5 -3.4,56.3 3.4,57.9 10.3,44.3 -5.1,42.7 -11.9,51.1 1.7,40.9 13.6,40.9 15.3,35.8 5.1,34.1 -1.7,23.8 18.7,8.6 39.1,1.8 -11.9,-23.8 -1.7,-15.4 -13.6,-27.2 -6.8,-54.5 1.7,-30.7 -6.8,-44.3 1.7,-20.4 6.8,-34.1 3.4,-39.3 1.7,-37.5 10.3,-32.4 8.6,-47.7 -3.4,66.5 5.1,37.5 -5.1,49.5 0,35.8 -8.6,51.1 8.6,42.7 5.1,46.1 10.3,37.5 -3.4,29 17,17 27.3,-8.6 37.4,5.2 35.7,-5.2 -25.6,-17 -34.1,-13.6 -17,-27.2 -3.4,-42.7 0,-52.9 -3.4,-46.1 8.6,-34.1 1.7,-25.6 10.3,-47.7 10.3,-54.5 1.7,-64.7 -1.7,-54.5 0,-44.3 3.4,-64.7 11.9,-49.5 -1.7,-25.6 17,-32.4 37.4,-22.2 47.7,-22.2 30.7,-15.4 27.3,0 40.8,-22.2 35.7,-20.4 27.3,-12 32.4,-15.4 34.1,-18.8 -30.7,6.8 29,-22.2 -30.7,13.6 35.7,-29 -35.7,18.8 20.4,-27.2 -46,22.2 -18.7,17 -32.4,8.6 -39.1,10.2 -46,22.2 -29,18.8 -34.1,10.2 -18.7,8.6 -23.8,-3.4 -20.4,3.4 -23.8,8.6 -17,6.8 -6.8,-10.2 23.8,-10.2 10.3,-30.7 -1.7,-30.7 -10.3,-10.2 0,-13.6 -8.6,-3.4 -8.6,-15.4 -17,-6.8 -22.1,1.8 -18.7,-5.2 -17,0 -15.3,13.6 -15.3,1.8 0,15.4 -17,3.4 0,13.6 -10.3,20.4 8.6,12 -10.3,15.4 17,1.8 0,17 15.3,3.4 -3.4,12 -29,-13.6 -29,0 -22.1,1.8 -30.7,-13.6 -32.4,-1.8 -13.6,-18.8 -25.6,-10.2 -30.7,-10.2 -37.4,-1.8 -25.6,-15.4 -6.8,-20.4 -37.4,-22.2 13.6,18.8 -35.7,-15.4 23.8,20.4 -34.1,-12 30.7,27.2 -25.6,-6.8 30.7,23.8 18.7,15.4 17,3.4 27.3,10.2 27.3,17 30.7,15.4 25.6,6.8 35.7,13.6 23.8,10.2 30.7,12 18.7,10.2 18.7,27.2 15.3,44.3 15.3,49.5 -3.4,51.1 -8.6,40.9Z" stroke-width="2" stroke="#777777" stroke-opacity="1" fill-opacity="10" stroke-linejoin="round" fill="transparent"/><circle cx="559.09" cy="681.24" r="536.27" stroke-width="2" stroke="#777777" stroke-opacity="1" fill-opacity="10" stroke-linejoin="round" fill="transparent"/><polygon points="125.51,340.62 1004.08,340.62 1004.08,1216.5 125.51,1216.5" stroke-width="2" stroke="#777777" stroke-opacity="1" fill-opacity="10" stroke-linejoin="round" fill="transparent"/><path d="M530.5,765.6l10.7,9.4 18.7,1.3 -13.3,-17.4 21.3,16.1 10.7,-16.1 -2.6,14.8 18.7,-13.3 -16.1,18.7 0,13.3 1.4,16.1 -14.7,9.4 -5.4,-5.4 -8,2.6 -9.4,-4.1 -1.4,-14.8 8,-14.8 9.4,-5.4 0,9.4 -1.4,7.9 -2.6,9.4 5.4,6.7 6.7,2.6 6.7,-6.7 -1.4,-9.4 0,-12Z" stroke-width="2" stroke="#777777" stroke-opacity="1" fill-opacity="10" stroke-linejoin="round" fill="transparent"/><path d="M472.9,537l20.1,24 17.3,7.9 24.1,-7.9 24.1,-7.9 18.7,5.4 20.1,6.7 14.7,0 18.7,-7.9 12,-20.1Z" stroke-width="2" stroke="#777777" stroke-opacity="1" fill-opacity="10" stroke-linejoin="round" fill="transparent"/><path d="M550.4,387.5l-12,0 -5.4,5.4 8,2.6 17.3,-7.9 9.4,5.4 8,4.1 8,-4.1 2.6,-6.7 -10.7,0 -9.4,0 -10.7,7.9 -1.4,10.7 -5.4,5.4 5.4,2.6 12,-1.3 6.7,5.4 -1.4,10.7 -24.1,-2.6 8,4.1 12,1.3Z" stroke-width="2" stroke="#777777" stroke-opacity="1" fill-opacity="10" stroke-linejoin="round" fill="transparent"/></svg>