<?xml version="1.0" standalone="no"?>
<svg width="1024" height="1024" xmlns="http://www.w3.org/2000/svg" viewbox="0 0 1024 1024" id="hero"><defs><linearGradient id="leo_id_1" x1="0%" y1="0%" x2="100%" y2="100%"><stop offset="0%" stop-color="#f00"/><stop offset="10%" stop-color="#f60"/><stop offset="20%" stop-color="#fa0"/><stop offset="30%" stop-color="#ff0"/><stop offset="40%" stop-color="#5f8"/><stop offset="50%" stop-color="#3a3"/><stop offset="60%" stop-color="#58f"/><stop offset="70%" stop-color="#15f"/><stop offset="80%" stop-color="#13a"/><stop offset="90%" stop-color="#73a"/><stop offset="100%" stop-color="#f43"/></linearGradient></defs><title>53 hot seconds</title><g viewBox="0 0 1024 1024"><rect x="0" y="0" width="1024" height="1024" fill="#000" rx="143.36" ry="143.36"/></g><g transform="  translate(10 0) "><path d="M 153.6,133.12 L 716.8,133.12 A 11.264,10.24,0,0,1,716.8,471.04   11.264,10.24,0,0,1,716.8,890.88 L 153.6,890.88   81.92,860.16   81.92,716.8   307.2,716.8 A 10.24,10.24,0,0,0,307.2,471.04 L 81.92,471.04   81.92,163.84 Z  " stroke-width="0" stroke="white" stroke-opacity="1" fill-opacity="1" stroke-linejoin="round" fill="url(#leo_id_1)"/><path d="M 220.16,276.48 L 716.8,276.48 A 5.12,5.12,0,0,1,716.8,384 L 435.2,384 A 256,256,0,0,1,563.2,563.2 L 716.8,563.2 A 10.24,10.24,0,0,1,716.8,716.8 L 501.76,716.8 A 256,256,0,0,0,220.16,378.88 Z  " stroke-width="0" stroke="white" stroke-opacity="1" fill-opacity="1" stroke-linejoin="round" fill="#000"/></g></svg>