<?xml version="1.0" standalone="no"?>
<svg width="987" height="652" xmlns="http://www.w3.org/2000/svg" viewbox="0 0 987 652" xmlns:cc="http://creativecommons.org/ns#" xmlns:dc="http://purl.org/dc/elements/1.1/" xmlns:ev="http://www.w3.org/2001/xml-events" xmlns:rdf="http://www.w3.org/1999/02/22-rdf-syntax-ns#" xmlns:svg="http://www.w3.org/2000/svg" xmlns:xlink="http://www.w3.org/1999/xlink"><g><image x="0" y="0" width="987" height="652" xmlns:xlink="http://www.w3.org/1999/xlink" xlink:href="./god.jpg" opacity="0.6"/></g><path d="M 10.955700000000002,242.02239999999998 l 47.9682,-11.018799999999999   33.952799999999996,-21.972400000000004   31.9788,-11.018799999999999   30.0048,-3.9772   40.9605,3.9772   42.0462,8.997599999999998   36.025499999999994,6.9764   42.0462,2.0212   28.0308,5.0204   15.0024,14.017999999999999   13.028400000000001,15.974   33.952799999999996,6.9764   16.976399999999998,11.018799999999999   15.9894,5.0204   12.0414,17.0172   19.0491,24.9716   8.9817,18.973200000000002   19.0491,21.972400000000004   -10.955700000000002,8.0196   -15.0024,-0.978   -15.0024,-9.9756   -6.0207,-12.9748   -15.9894,-11.9968   -17.9634,-21.972400000000004   -12.3375,-1.304   -29.017799999999998,-5.9984   -7.9947,-5.9984   -13.028400000000001,6.9764   -22.9971,-2.9992   -4.0466999999999995,-5.9984   -22.010099999999998,11.018799999999999   -7.0077,5.9984   23.9841,27.9708   15.0024,5.0204   15.9894,12.9748   14.0154,14.995999999999999   8.9817,21.972400000000004   -1.974,11.9968   -14.0154,5.9984   -14.0154,-5.9984   -21.0231,-14.995999999999999   -13.028400000000001,-12.9748   -19.0491,-12.9748   -22.9971,-9.9756   -23.9841,-6.9764   -20.036099999999998,-0.978   -16.976399999999998,-6.9764   -20.036099999999998,-14.017999999999999   -15.0024,-20.9944   -12.0414,6.9764   -19.0491,5.0204   -17.9634,11.018799999999999   -16.976399999999998,20.016399999999997   -16.976399999999998,18.973200000000002   -19.0491,18.973200000000002   -19.0491,15.974   -19.0491,14.017999999999999   -24.971099999999996,14.017999999999999 " stroke-width="2" stroke="#ef88d8" stroke-opacity="1" fill-opacity="10" stroke-linejoin="round" fill="transparent"/><path d="M 434.97090000000003,329.97720000000004 l 2.961,20.016399999999997   7.9947,20.016399999999997   -0.987,18.973200000000002   8.9817,23.0156   -10.955700000000002,2.9992   -10.955700000000002,-5.9984   -9.9687,-14.995999999999999   -10.955700000000002,-23.9936   -7.9947,-12.9748   -4.0466999999999995,-26.0148 " stroke-width="2" stroke="#ef88d8" stroke-opacity="1" fill-opacity="10" stroke-linejoin="round" fill="transparent"/><path d="M 423.02819999999997,397.0028 l 5.0337,17.995199999999997   -10.955700000000002,0   -10.955700000000002,-5.9984   -2.961,-12.9748   0,-12.9748   -5.0337,-2.9992   -7.0077,-11.018799999999999   -1.974,-12.9748   -7.0077,-5.0204   -8.9817,-5.0204   -10.955700000000002,-14.995999999999999   2.961,15.974   -0.987,17.0172 " stroke-width="2" stroke="#ef88d8" stroke-opacity="1" fill-opacity="10" stroke-linejoin="round" fill="transparent"/><path d="M 344.9565,403.9792 l -7.0077,14.017999999999999   -6.0207,2.0212   -8.9817,-8.0196   -0.987,-9.9756   1.974,-12.9748 " stroke-width="2" stroke="#ef88d8" stroke-opacity="1" fill-opacity="10" stroke-linejoin="round" fill="transparent"/><path d="M 328.9671,337.9968 l -1.974,-12.9748   -6.0207,-8.997599999999998   -14.0154,2.0212 " stroke-width="2" stroke="#ef88d8" stroke-opacity="1" fill-opacity="10" stroke-linejoin="round" fill="transparent"/><path d="M 977.0312999999999,225.98319999999995 l -14.0154,-0.978   -17.9634,5.0204   -15.9894,-0.978   -13.028400000000001,0.978   -15.0024,3.9772   -12.0414,6.9764   -12.0414,5.0204   -14.0154,0   -16.976399999999998,0   -15.9894,6.9764   -15.9894,8.0196   -15.0024,0   -16.976399999999998,0   -17.9634,3.9772   -14.0154,5.0204   -16.976399999999998,5.0204   -15.9894,8.997599999999998   -13.028400000000001,6.9764   -12.0414,3.9772   -10.955700000000002,2.9992   -9.9687,0.978   -13.028400000000001,0   -9.9687,3.9772   -15.0024,2.0212   -15.0024,-0.978   -12.0414,-0.978   -8.9817,2.0212   -12.0414,-0.978   -15.0024,5.9984   -10.955700000000002,3.9772   -8.9817,2.9992   -7.9947,0   -6.0207,2.9992   -13.028400000000001,5.9984   -8.9817,2.9992   -4.0466999999999995,6.9764   1.974,8.997599999999998   7.9947,3.9772   9.9687,2.9992   15.0024,0   12.0414,-2.9992   7.9947,-3.9772   13.028400000000001,0.978   14.0154,-2.9992   9.9687,-2.9992   10.955700000000002,3.9772   16.976399999999998,2.0212   10.955700000000002,0.978   7.0077,0   5.0337,5.9984   10.955700000000002,5.9984   -6.0207,8.0196   -4.0466999999999995,6.9764 " stroke-width="2" stroke="#ef88d8" stroke-opacity="1" fill-opacity="10" stroke-linejoin="round" fill="transparent"/><path d="M 723.9644999999999,323.00079999999997 l -14.0154,12.9748   -10.955700000000002,17.0172   -15.0024,9.9756   -12.0414,2.9992   -2.961,5.9984   -7.9947,-0.978   -12.0414,5.0204   -6.0207,8.0196   -19.0491,8.997599999999998   -6.0207,11.018799999999999   2.961,9.9756   7.9947,6.9764   12.0414,5.0204   21.0231,-0.978   16.976399999999998,-6.9764   13.028400000000001,-12.9748   15.0024,-8.997599999999998   16.976399999999998,-8.0196   15.9894,-5.9984   14.0154,2.9992   15.0024,0.978   19.0491,-2.9992   16.976399999999998,-3.9772   10.955700000000002,-8.0196   13.028400000000001,-12.9748 " stroke-width="2" stroke="#ef88d8" stroke-opacity="1" fill-opacity="10" stroke-linejoin="round" fill="transparent"/><path d="M 637.0098,424.9736000000001 l 0,17.995199999999997   -4.0466999999999995,11.9968   0,11.018799999999999   2.961,9.9756   0.987,20.016399999999997   8.9817,8.997599999999998   14.0154,-0.978   4.0466999999999995,-8.0196   1.974,-14.995999999999999   -1.974,-14.017999999999999   2.961,-9.9756   0.987,-12.9748   2.961,-12.9748   9.9687,-14.995999999999999 " stroke-width="2" stroke="#ef88d8" stroke-opacity="1" fill-opacity="10" stroke-linejoin="round" fill="transparent"/><path d="M 662.9679000000001,498.9756 l 7.0077,5.0204   14.0154,-2.9992   5.0337,-11.018799999999999   2.961,-11.9968   -2.961,-8.0196   7.0077,-9.9756   4.0466999999999995,-11.9968   0.987,-8.0196   12.0414,-8.997599999999998   9.9687,-12.9748   -2.961,17.0172   -5.0337,11.9968   -0.987,11.018799999999999   0,8.997599999999998   2.961,14.017999999999999   6.0207,11.018799999999999   13.028400000000001,2.0212   7.9947,-5.9984   4.0466999999999995,-12.9748   -0.987,-9.9756   0,-12.9748   5.0337,-8.0196   4.0466999999999995,-8.0196   0,-6.9764   19.0491,-0.978   10.955700000000002,0   9.9687,-5.9984   13.028400000000001,-8.0196   12.0414,-3.9772   7.9947,-5.9984   7.9947,-11.018799999999999   13.028400000000001,-6.9764   7.0077,-6.9764   7.0077,-3.9772   1.974,-6.9764   7.9947,0.978   6.0207,-3.9772   15.0024,0   13.028400000000001,2.0212   14.0154,2.9992   13.028400000000001,3.9772   12.0414,2.9992   16.976399999999998,2.0212   12.0414,2.0212 " stroke-width="2" stroke="#ef88d8" stroke-opacity="1" fill-opacity="10" stroke-linejoin="round" fill="transparent"/></svg>