<?xml version="1.0" standalone="no"?>
<svg width="854" height="1214" xmlns="http://www.w3.org/2000/svg" viewbox="0 0 854 1214" xmlns:cc="http://creativecommons.org/ns#" xmlns:dc="http://purl.org/dc/elements/1.1/" xmlns:ev="http://www.w3.org/2001/xml-events" xmlns:rdf="http://www.w3.org/1999/02/22-rdf-syntax-ns#" xmlns:svg="http://www.w3.org/2000/svg" xmlns:xlink="http://www.w3.org/1999/xlink" style="background-color: rgb(34, 34, 34);"><path d="M353,563.7l-29.3,53.5 -10.2,49.8 -19.1,25.5 -29.3,28 -16.6,42.1 -8.9,33.1 -5.1,26.8 -14,16.6 -12.7,7.6 29.3,21.7 10.2,-6.4 2.6,-14.1 5.1,-24.3 23,-35.7 16.6,-22.9 14,-40.8 24.3,-28 24.3,-40.8 28,-25.5 16.6,-25.5 7.7,-15.3 19.1,-1.3 8.9,35.7 26.7,43.3 20.4,38.2 10.2,19.2 7.7,33.1 16.6,31.9 16.6,25.5 21.7,24.3 11.4,21.7 5.1,20.4 21.7,-12.7 12.7,0 8.9,-7.6 17.8,-14.1 -8.9,-9 -29.3,2.5 -12.7,-12.7 -19.1,-45.9 -14,-29.4 -12.7,-19.2 -6.4,-15.3 -1.3,-17.8 -11.4,-19.2 -1.3,-20.4 -8.9,-33.1 -16.6,-34.5 -7.7,-22.9 -5.1,-21.7 -8.9,-26.8 1.3,-11.5 -1.3,-22.9 6.4,-29.4 8.9,-26.8 8.9,-24.3 20.4,-9 21.7,1.3 39.5,-3.9 35.7,6.4 38.3,-10.2 35.7,0 51,-3.9 -17.8,-6.4 21.7,-3.9 -23,-6.4 30.6,1.3 -28,-7.6 20.4,-2.5 -37,-7.6 -19.1,9 -24.3,3.9 -29.3,-1.3 -47.1,3.9 -40.8,-1.3 -33.1,-11.5 -31.9,0 -24.3,-7.6 -16.6,-19.2 5.1,-15.3 2.6,-26.8 -8.9,-17.8 -31.9,-6.4 -11.4,20.4 0,26.8 3.8,21.7 -7.7,14.1 -15.3,3.9 -30.6,5.1 -28,7.6 -21.7,-1.3 -24.3,7.6 -23,-6.4 -20.4,1.3 -24.3,-2.5 -28,1.3 -28,-5.1 -35.7,-7.6 15.3,10.2 -29.3,-3.9 25.5,11.5 -26.7,0 24.3,5.1 -21.7,7.6 34.4,6.4 17.8,6.4 20.4,-3.9 30.6,5.1 44.6,0 37,-1.3 29.3,7.6 29.3,0 15.3,12.7 2.6,25.5 10.2,31.9 0,15.3 -3.8,20.4 -3.8,29.4Z" stroke-width="2" stroke="#777777" stroke-opacity="1" fill-opacity="10" stroke-linejoin="round" fill="transparent"/><path d="M354.3,558.6l2.6,28 -2.6,42.1 2.6,43.3 7.7,33.1 -3.8,31.9 -8.9,38.2 1.3,30.6 10.2,30.6 11.4,26.8 3.8,25.5 -1.3,17.8 14,6.4 29.3,1.3 -8.9,-17.8 -1.3,-11.5 -10.2,-20.4 -5.1,-40.8 1.3,-22.9 -5.1,-33.1 1.3,-15.3 5.1,-25.5 2.6,-29.4 1.3,-28 7.7,-24.3 6.4,-35.7 -2.6,49.8 3.8,28 -3.8,37 0,26.8 -6.4,38.2 6.4,31.9 3.8,34.5 7.7,28 -2.6,21.7 12.7,12.7 20.4,-6.4 28,3.9 26.7,-3.9 -19.1,-12.7 -25.5,-10.2 -12.7,-20.4 -2.6,-31.9 0,-39.6 -2.6,-34.5 6.4,-25.5 1.3,-19.2 7.7,-35.7 7.7,-40.8 1.3,-48.4 -1.3,-40.8 0,-33.1 2.6,-48.4 8.9,-37 -1.3,-19.2 12.7,-24.3 28,-16.6 35.7,-16.6 23,-11.5 20.4,0 30.6,-16.6 26.7,-15.3 20.4,-9 24.3,-11.5 25.5,-14.1 -23,5.1 21.7,-16.6 -23,10.2 26.7,-21.7 -26.7,14.1 15.3,-20.4 -34.4,16.6 -14,12.7 -24.3,6.4 -29.3,7.6 -34.4,16.6 -21.7,14.1 -25.5,7.6 -14,6.4 -17.8,-2.5 -15.3,2.5 -17.8,6.4 -12.7,5.1 -5.1,-7.6 17.8,-7.6 7.7,-22.9 -1.3,-22.9 -7.7,-7.6 0,-10.2 -6.4,-2.5 -6.4,-11.5 -12.7,-5.1 -16.6,1.3 -14,-3.9 -12.7,0 -11.4,10.2 -11.4,1.3 0,11.5 -12.7,2.5 0,10.2 -7.7,15.3 6.4,9 -7.7,11.5 12.7,1.3 0,12.7 11.4,2.5 -2.6,9 -21.7,-10.2 -21.7,0 -16.6,1.3 -23,-10.2 -24.3,-1.3 -10.2,-14.1 -19.1,-7.6 -23,-7.6 -28,-1.3 -19.1,-11.5 -5.1,-15.3 -28,-16.6 10.2,14.1 -26.7,-11.5 17.8,15.3 -25.5,-9 23,20.4 -19.1,-5.1 23,17.8 14,11.5 12.7,2.5 20.4,7.6 20.4,12.7 23,11.5 19.1,5.1 26.7,10.2 17.8,7.6 23,9 14,7.6 14,20.4 11.4,33.1 11.4,37 -2.6,38.2 -6.4,30.6Z" stroke-width="2" stroke="#777777" stroke-opacity="1" fill-opacity="10" stroke-linejoin="round" fill="transparent"/><circle cx="418.46" cy="509.88" r="401.38" stroke-width="2" stroke="#777777" stroke-opacity="1" fill-opacity="10" stroke-linejoin="round" fill="transparent"/><polygon points="93.94,254.94 751.52,254.94 751.52,910.5 93.94,910.5" stroke-width="2" stroke="#777777" stroke-opacity="1" fill-opacity="10" stroke-linejoin="round" fill="transparent"/><path d="M397,573l8,7 14,1 -10,-13 16,12 8,-12 -2,11 14,-10 -12,14 0,10 1,12 -11,7 -4,-4 -6,1.9 -7,-3 -1,-11 6,-11 7,-4 0,7 -1,5.9 -2,7 4,5 5,1.9 5,-5 -1,-7 0,-9Z" stroke-width="2" stroke="#777777" stroke-opacity="1" fill-opacity="10" stroke-linejoin="round" fill="transparent"/><path d="M354,402l15,18 13,5.9 18,-5.9 18,-5.9 14,4 15,5 11,0 14,-5.9 9,-15.1Z" stroke-width="2" stroke="#777777" stroke-opacity="1" fill-opacity="10" stroke-linejoin="round" fill="transparent"/><path d="M412,290l-9,0 -4,4 6,1.9 13,-5.9 7,4 6,3 6,-3 2,-5 -8,0 -7,0 -8,5.9 -1,8 -4,4 4,1.9 9,-1 5,4 -1,8 -18,-1.9 6,3 9,1Z" stroke-width="2" stroke="#777777" stroke-opacity="1" fill-opacity="10" stroke-linejoin="round" fill="transparent"/></svg>